<svg xmlns="http://www.w3.org/2000/svg" xmlns:xlink="http://www.w3.org/1999/xlink" viewBox="0 0 218.18 218.83"><defs><style>.cls-1{fill:url(#linear-gradient);}.cls-2{fill:#f49b31;}.cls-3{fill:#f7a64d;opacity:0.7;}.cls-4{fill:url(#linear-gradient-2);}.cls-5{fill:#5abb7b;}.cls-6{fill:#ddd;}.cls-7{fill:#ff5b4f;}.cls-8{fill:#fff;}</style><linearGradient id="linear-gradient" x1="55.64" y1="121.03" x2="163.57" y2="121.03" gradientUnits="userSpaceOnUse"><stop offset="0" stop-color="#ffd473"/><stop offset="1" stop-color="#ffc449"/></linearGradient><linearGradient id="linear-gradient-2" x1="186.61" y1="190.9" x2="206.39" y2="190.9" gradientUnits="userSpaceOnUse"><stop offset="0" stop-color="#ffc963"/><stop offset="1" stop-color="#ffbb38"/></linearGradient></defs><title>query services</title><g id="Layer_2" data-name="Layer 2"><g id="Layer_1-2" data-name="Layer 1"><path class="cls-1" d="M152.07,218.83h-85a11.48,11.48,0,0,1-11.48-11.48V34.71A11.48,11.48,0,0,1,67.12,23.23h85a11.49,11.49,0,0,1,11.5,11.48V207.36a11.49,11.49,0,0,1-11.5,11.48Zm0,0"/><path class="cls-2" d="M119.72,201a10.12,10.12,0,1,1-10.11-10.11A10.12,10.12,0,0,1,119.72,201Zm0,0"/><rect class="cls-3" x="55.64" y="44.8" width="107.93" height="138.77"/><rect class="cls-2" x="97.94" y="32.28" width="23.33" height="5" rx="2.5" ry="2.5"/><circle class="cls-4" cx="196.5" cy="190.9" r="9.89"/><circle class="cls-5" cx="13.18" cy="68.75" r="13.18"/><circle class="cls-6" cx="202.04" cy="16.14" r="16.14"/><rect class="cls-7" x="39.13" y="83.86" width="141.79" height="57.66" rx="27.08" ry="27.08"/><path class="cls-8" d="M56.6,119.74l4-6.27-6.16-2.69.74-2.3,6.43,1.91.39-7.13h2.49l.39,7.13,6.43-1.91.74,2.3-6.16,2.69,4,6.27-2.06,1.44-4.6-5.84-4.6,5.84Z"/><path class="cls-8" d="M76.9,122.08,79,119.2a9.7,9.7,0,0,0,6.58,2.73c3,0,5.3-1.4,5.3-3.74,0-2.57-2.1-4.21-8.22-4.21V110.7c5.34,0,7.36-1.67,7.36-4,0-2.06-1.71-3.31-4.36-3.31A8.64,8.64,0,0,0,80,105.75L77.68,103a12.67,12.67,0,0,1,8.18-3.12c5.07,0,8.69,2.34,8.69,6.55,0,2.77-2,4.64-5,5.69v.16c3.23.78,5.88,2.88,5.88,6.16,0,4.52-4.36,7.17-9.43,7.17A12.1,12.1,0,0,1,76.9,122.08Z"/><path class="cls-8" d="M100.83,118.77c0-3.23,2.42-5.1,5-6.35v-.16c-2.06-1.32-3.7-3.2-3.7-5.81,0-4,3.39-6.58,8-6.58,4.91,0,7.95,2.69,7.95,6.7,0,2.3-1.68,4.32-3.7,5.65v.16c2.69,1.32,4.79,3,4.79,6.47,0,3.82-3.31,6.74-9.16,6.74C104.37,125.58,100.83,122.78,100.83,118.77Zm14.14-.08c0-2.84-2.92-3.66-6.86-5-1.91,1.13-3.31,2.57-3.31,4.64,0,2.45,2.18,4.09,5.34,4.09C113.14,122.39,115,121,115,118.69Zm-.62-11.84c0-2.18-1.52-3.78-4.25-3.78-2.3,0-4,1.25-4,3.39,0,2.49,2.45,3.58,5.77,4.67A5.54,5.54,0,0,0,114.35,106.84Z"/><path class="cls-8" d="M135.51,118.73H123.15v-3l11.38-15.39h5.18v15h3.51v3.47h-3.51v6.39h-4.21Zm0-3.47v-5.92c0-1.48.16-3.43.23-4.91h-.2c-.82,1.29-1.75,2.61-2.61,3.94l-5.22,6.9Z"/><path class="cls-8" d="M158.46,117.52h-4.6l-.9,7.6h-2.73l.94-7.6h-3v-3h3.39l.62-5h-3.23v-3h3.62l.82-6.78H156l-.82,6.78h4.64l.82-6.78h2.69l-.82,6.78h3.08v3h-3.43l-.62,5h3.27v3h-3.62l-.94,7.6h-2.73Zm1-8h-4.6l-.58,5h4.56Z"/></g></g></svg>